<svg xmlns="http://www.w3.org/2000/svg" xmlns:xlink="http://www.w3.org/1999/xlink" aria-hidden="true" focusable="false" width="1em" height="1em" style="-ms-transform: rotate(360deg); -webkit-transform: rotate(360deg); transform: rotate(360deg);" preserveAspectRatio="xMidYMid meet" viewBox="0 0 1024 1024"><path d="M960 96H704V32q0-13-9.5-22.5T672 0t-22.5 9.5T640 32v64H384V32q0-13-9.5-22.5T352 0t-22.5 9.5T320 32v64H64q-27 0-45.5 18.5T0 160v800q0 17 8.5 32t23.5 23.5t32 8.5h896q27 0 45.5-19t18.5-45V160q0-18-8.5-32.5t-23.5-23t-32-8.5zm0 864H64V160h256v32q0 13 9.5 22.5T352 224t22.5-9.5T384 192v-32h256v32q0 13 9.5 22.5T672 224t22.5-9.5T704 192v-32h256v800zM736 512h64q13 0 22.5-9.5T832 480v-64q0-13-9.5-22.5T800 384h-64q-13 0-22.5 9.5T704 416v64q0 13 9.5 22.5T736 512zm0 256h64q13 0 22.5-9.5T832 736v-64q0-13-9.5-22.5T800 640h-64q-13 0-22.5 9.5T704 672v64q0 13 9.5 22.5T736 768zM544 640h-64q-13 0-22.5 9.5T448 672v64q0 5 1.5 10t4.5 9t7 7t9 4.5t10 1.5h64q13 0 22.5-9.5T576 736v-64q0-4-1-8.5t-3-8t-5-6.5t-6.5-5t-8-3t-8.5-1zm0-256h-64q-13 0-22.5 9.5T448 416v64q0 13 9.5 22.5T480 512h64q13 0 22.5-9.5T576 480v-64q0-7-2.5-12.5t-7-10t-10-7T544 384zm-256 0h-64q-13 0-22.5 9.5T192 416v64q0 13 9.5 22.5T224 512h64q13 0 22.5-9.5T320 480v-64q0-7-2.5-12.5t-7-10t-10-7T288 384zm0 256h-64q-13 0-22.5 9.5T192 672v64q0 13 9.5 22.5T224 768h64q13 0 22.5-9.5T320 736v-64q0-4-1-8.5t-3-8t-5-6.5t-6.5-5t-8-3t-8.5-1z" /></svg>