<?xml version="1.0" encoding="UTF-8"?>
<svg width="16px" height="17px" viewBox="0 0 16 17" version="1.1" xmlns="http://www.w3.org/2000/svg" xmlns:xlink="http://www.w3.org/1999/xlink">
    <title></title>
    <g id="-1440-desktop-designs" stroke="none" stroke-width="1" fill="none" fill-rule="evenodd">
        <g id="Desktop--1440px-Transactions" transform="translate(-207.000000, -584.000000)">
            <g id="Transaction-table" transform="translate(177.000000, 354.000000)">
                <rect id="Rectangle-Copy" fill="#21383D" x="0" y="216.579994" width="1198" height="45"></rect>
                <path d="M37.969376,238.318443 C38.134988,238.318443 38.2887706,238.282955 38.4307237,238.211978 L38.4307237,238.211978 L38.5017003,238.17649 L44.9960559,234.734127 L45.0670325,234.698639 C45.1143502,234.67498 45.1616679,234.627662 45.2089856,234.556685 C45.2563033,234.485709 45.2799622,234.414732 45.2799622,234.343756 C45.2799622,234.201803 45.1853267,234.095338 44.9960559,234.024361 L44.9960559,234.024361 L38.5726768,231.114322 L37.969376,230.936881 C37.8274229,230.936881 37.6263226,230.996028 37.3660752,231.114322 L37.3660752,231.114322 L30.9426962,234.024361 L30.8717196,234.059849 C30.8244019,234.083508 30.7770842,234.118997 30.7297665,234.166314 C30.6824488,234.213632 30.6587899,234.272779 30.6587899,234.343756 C30.6587899,234.509368 30.7534253,234.651321 30.9426962,234.769615 L30.9426962,234.769615 L37.4370518,238.17649 L37.5080284,238.211978 C37.6499815,238.282955 37.803764,238.318443 37.969376,238.318443 Z M38.9985362,246.835631 C39.0931716,246.835631 39.1641482,246.823802 39.2114659,246.800143 L39.2114659,246.800143 L39.2114659,246.764654 L45.4219153,243.499733 L45.4219153,243.464244 C45.7531393,243.251315 45.9187512,242.991067 45.9187512,242.683502 L45.9187512,242.683502 L45.9187512,236.189146 C45.9187512,236.070852 45.8714335,235.970302 45.7767981,235.887496 C45.6821627,235.80469 45.5756979,235.763287 45.4574036,235.763287 C45.386427,235.763287 45.3272799,235.775116 45.2799622,235.798775 L45.2799622,235.798775 L45.2089856,235.834264 L39.1050011,238.992721 L38.9985362,239.063697 C38.6909711,239.252968 38.5371885,239.513215 38.5371885,239.844439 L38.5371885,239.844439 L38.5371885,246.409772 C38.5371885,246.528066 38.5845063,246.628616 38.6791417,246.711422 C38.7737771,246.794228 38.8802419,246.835631 38.9985362,246.835631 Z M36.9402158,246.835631 C37.0585101,246.835631 37.164975,246.794228 37.2596104,246.711422 C37.3542458,246.628616 37.4015635,246.528066 37.4015635,246.409772 L37.4015635,246.409772 L37.4015635,239.844439 C37.4015635,239.513215 37.247781,239.252968 36.9402158,239.063697 L36.9402158,239.063697 L36.7982627,238.992721 L30.7297665,235.834264 L30.6587899,235.798775 C30.635131,235.775116 30.5759839,235.763287 30.4813485,235.763287 C30.3630542,235.763287 30.2565894,235.80469 30.1619539,235.887496 C30.0673185,235.970302 30.0200008,236.070852 30.0200008,236.189146 L30.0200008,236.189146 L30.0200008,242.683502 C30.0200008,242.991067 30.1856128,243.251315 30.5168368,243.464244 L30.5168368,243.464244 L30.5168368,243.499733 L36.7272862,246.764654 C36.8219216,246.811972 36.8928981,246.835631 36.9402158,246.835631 Z" id="" fill="#fff" fill-rule="nonzero"></path>
            </g>
        </g>
    </g>
</svg>