<?xml version="1.0" encoding="UTF-8"?>
<svg width="79" height="25" viewBox="0 0 79 25" fill="none" xmlns="http://www.w3.org/2000/svg">
<path d="M78.3619 0.78833H0.637085V24.1819H78.3619V0.78833Z" stroke="white"/>
<path d="M70.0721 7.36255V9.26199L63.0376 16.2662H70.0721V18.4505H60.0929V16.5511L67.0798 9.57065H60.4795V7.36255H70.0721Z" fill="white" stroke="white" stroke-width="0.7"/>
<path d="M50.1137 7.36255C53.0916 7.36255 55.6577 9.92864 55.6577 12.9066C55.6577 15.8845 53.0916 18.4505 50.1137 18.4505C47.1358 18.4505 44.5697 15.8845 44.5697 12.9066C44.5697 9.92864 47.1358 7.36255 50.1137 7.36255ZM50.1137 9.7227C48.4505 9.7227 46.9457 11.2275 46.9457 12.8907C46.9457 14.5539 48.4505 16.0746 50.1137 16.0746C51.7769 16.0746 53.2817 14.5539 53.2817 12.8907C53.2817 11.2275 51.7769 9.7227 50.1137 9.7227Z" fill="white"/>
<path d="M38.5322 14.6331H41.2433C40.4965 16.8507 38.3536 18.4505 35.8373 18.4505C32.7041 18.4505 30.1553 15.9637 30.1553 12.9066C30.1553 9.84944 32.7041 7.36255 35.8373 7.36255C38.3536 7.36255 40.4803 8.94656 41.227 11.1483H38.5159C38.0614 10.1821 36.9574 9.58015 35.8373 9.58015C34.0515 9.58015 32.6229 11.085 32.6229 12.9066C32.6229 14.744 34.0515 16.233 35.8373 16.233C36.9737 16.233 38.0776 15.5835 38.5322 14.6331Z" fill="white" stroke="white" stroke-width="0.7"/>
<path fill-rule="evenodd" clip-rule="evenodd" d="M23.5024 0.155273L23.4987 24.5452L0.217651 24.5489L0.221363 0.158997L23.5024 0.155273ZM5.45341 9.23943L3.21418 11.4787L7.53938 15.8028L3.06055 20.2819L7.46219 20.2051L11.9407 15.7267L5.45341 9.23943ZM18.2752 13.5806L13.9557 18.0153L18.2394 18.0196L20.4394 15.7311L18.2752 13.5806ZM14.1129 4.68059L11.8741 6.9192L9.71126 4.7574L7.47203 6.99664L13.9593 13.4839L16.1985 11.2446L14.0365 9.08154L16.2753 6.843L14.1129 4.68059Z" fill="white"/>
</svg>