<?xml version="1.0" encoding="UTF-8"?>
<svg width="82px" height="151px" viewBox="0 0 82 151" version="1.1" xmlns="http://www.w3.org/2000/svg" xmlns:xlink="http://www.w3.org/1999/xlink">
    <title>Logo</title>
    <g id="-1440-desktop-designs" stroke="none" stroke-width="1" fill="none" fill-rule="evenodd">
        <g id="Desktop--1440-Homepage" transform="translate(-175.000000, -3035.000000)">
            <g id="Footer" transform="translate(0.000000, 2702.000000)">
                <rect id="Rectangle" fill="#0D282E" x="0" y="0" width="1481" height="508"></rect>
                <g id="Logo" transform="translate(175.000000, 333.000000)">
                    <g id="Group-8" transform="translate(1.524769, 124.666705)" stroke="#FFFFFF">
                        <rect id="Rectangle-Copy-7" x="1.11231663" y="1.12157391" width="77.7247947" height="23.3935984"></rect>
                    </g>
                    <g id="Group-2" transform="translate(20.166747, 20.643531) rotate(-316.000000) translate(-20.166747, -20.643531) translate(7.302073, 5.091317)"></g>
                    <polygon id="Path" stroke="#FFFFFF" stroke-width="0.699999988" fill="#FFFFFF" fill-rule="nonzero" points="72.0719952 132.362396 72.0719952 134.26184 65.0375287 141.266036 72.0719952 141.266036 72.0719952 143.450396 62.0927958 143.450396 62.0927958 141.550953 69.0797163 134.570499 62.4793992 134.570499 62.4793992 132.362396"></polygon>
                    <path d="M52.1135965,132.362396 C55.0915163,132.362396 57.6575961,134.928476 57.6575961,137.906396 C57.6575961,140.884316 55.0915163,143.450396 52.1135965,143.450396 C49.1356767,143.450396 46.5695969,140.884316 46.5695969,137.906396 C46.5695969,134.928476 49.1356767,132.362396 52.1135965,132.362396 Z M52.1135965,134.722556 C50.4503966,134.722556 48.9455967,136.227356 48.9455967,137.890556 C48.9455967,139.553756 50.4503966,141.074396 52.1135965,141.074396 C53.7767964,141.074396 55.2815963,139.553756 55.2815963,137.890556 C55.2815963,136.227356 53.7767964,134.722556 52.1135965,134.722556 Z" id="Combined-Shape" fill="#FFFFFF" fill-rule="nonzero"></path>
                    <path d="M40.5320758,139.632956 L43.2431971,139.632956 C42.4964212,141.850556 40.3534989,143.450396 37.8371887,143.450396 C34.7039766,143.450396 32.1551978,140.963516 32.1551978,137.906396 C32.1551978,134.849276 34.7039766,132.362396 37.8371887,132.362396 C40.3534989,132.362396 42.4801869,133.946396 43.2269628,136.148156 L40.5158415,136.148156 C40.0612822,135.181916 38.9573526,134.579996 37.8371887,134.579996 C36.0514201,134.579996 34.6228053,136.084796 34.6228053,137.906396 C34.6228053,139.743836 36.0514201,141.232796 37.8371887,141.232796 C38.9735868,141.232796 40.0775165,140.583356 40.5320758,139.632956 Z" id="Path" stroke="#FFFFFF" stroke-width="0.699999988" fill="#FFFFFF" fill-rule="nonzero"></path>
                    <path d="M25.5023983,125.155197 L25.4986862,149.545071 L2.21759985,149.548795 L2.2213119,125.158921 L25.5023983,125.155197 Z M7.45336071,134.239346 L5.21412993,136.478577 L9.53932571,140.802711 L5.06049545,145.281865 L9.46213978,145.205048 L13.9406013,140.726587 L7.45336071,134.239346 Z M20.2751406,138.580482 L15.9556418,143.015198 L20.2393047,143.019484 L22.4393115,140.731063 L20.2751406,138.580482 Z M16.1128531,129.680513 L13.8740721,131.919133 L11.7112088,129.757331 L9.47197804,131.996561 L15.9592187,138.483802 L18.1984495,136.244571 L16.0364046,134.081465 L18.2752667,131.842927 L16.1128531,129.680513 Z" id="Combined-Shape" fill="#FFFFFF"></path>
                </g>
            </g>
        </g>
    </g>
</svg>