<svg xmlns="http://www.w3.org/2000/svg" width="69" height="73" viewBox="0 0 69 73"><g><g><path fill="none" stroke="#7d9fb1" stroke-miterlimit="20" stroke-width="1.48" d="M33.832 15.912a1.478 1.478 0 0 1 1.456 0l17.193 9.723c.464.263.75.754.75 1.287v19.396c0 .533-.286 1.024-.75 1.287l-17.193 9.723a1.478 1.478 0 0 1-1.456 0L16.64 47.605a1.478 1.478 0 0 1-.75-1.287V26.922c0-.533.286-1.024.75-1.287z"/></g><g><path fill="none" stroke="#7d9fb1" stroke-linecap="round" stroke-miterlimit="20" stroke-width="1.48" d="M34.56 56.86V36.62"/></g><g><path fill="none" stroke="#7d9fb1" stroke-linecap="round" stroke-miterlimit="20" stroke-width="1.48" d="M15.64 26.94l18.48 9.68"/></g><g><path fill="none" stroke="#7d9fb1" stroke-linecap="round" stroke-miterlimit="20" stroke-width="1.48" d="M52.6 26.94l-18.48 9.68"/></g></g></svg>