<svg xmlns="http://www.w3.org/2000/svg" width="30" height="30" viewBox="0 0 30 30"><g><g><path fill="#de4c85" d="M15 25c5.523 0 10-4.477 10-10S20.523 5 15 5 5 9.477 5 15s4.477 10 10 10z"/></g><g><path d="M18.941 19.994l1.003-1.003L16 15.047l3.944-3.944-1.003-1.003-3.944 3.944-3.944-3.944-1.003 1.003 3.944 3.944-3.944 3.944 1.003 1.003 3.944-3.944z"/><path fill="none" stroke="#000" stroke-miterlimit="20" d="M18.941 19.994v0l1.003-1.003v0L16 15.047v0l3.944-3.944v0L18.941 10.1v0l-3.944 3.944v0L11.053 10.1v0l-1.003 1.003v0l3.944 3.944v0l-3.944 3.944v0l1.003 1.003v0l3.944-3.944v0z"/></g></g></svg>