<?xml version="1.0" encoding="UTF-8"?>
<svg width="26px" height="26px" viewBox="0 0 26 26" version="1.1" xmlns="http://www.w3.org/2000/svg" xmlns:xlink="http://www.w3.org/1999/xlink">
    <title>Group</title>
    <g id="Page-1" stroke="none" stroke-width="1" fill="none" fill-rule="evenodd">
        <g id="Desktop--1440-Homepage-Copy-15" transform="translate(-913.000000, -2128.000000)">
            <g id="Footer" transform="translate(118.000000, 1945.000000)">
                <g id="Group" transform="translate(795.975993, 183.724889)">
                    <rect id="Rectangle" fill="#EB4DFF" x="8.34887715e-14" y="-1.43884904e-13" width="24.5519988" height="24.5519988" rx="3.16799984"></rect>
                    <path d="M14.3836403,19.5493484 L14.4805278,19.5386971 C17.176513,18.6370889 19.1211581,16.0913717 19.1211581,13.0948504 C19.1211581,9.34698902 16.0804403,6.30627126 12.3325789,6.30627126 C8.58471748,6.30627126 5.54399972,9.34698902 5.54399972,13.0948504 C5.54399972,16.0913717 7.4886448,18.6370889 10.18463,19.5386971 C10.5293626,19.6005722 10.6531127,19.3884291 10.6531127,19.2116431 C10.6531127,19.0436965 10.6442734,18.5133388 10.6442734,17.9476238 C10.6442734,17.9476238 8.7526641,18.3542315 8.35489579,17.1432479 C8.35489579,17.1432479 8.04552044,16.3565506 7.60355565,16.1532468 C7.60355565,16.1532468 6.98480494,15.7289606 7.64775213,15.7377999 C7.64775213,15.7377999 8.31953861,15.7908357 8.69078903,16.4361043 C9.28302185,17.4791412 10.273023,17.1786051 10.661952,17.0018192 C10.7238271,16.5686937 10.900613,16.2681576 11.0950775,16.0913717 C9.58355791,15.9234251 8.00132396,15.3400316 8.00132396,12.7412786 C8.00132396,11.9987778 8.26650283,11.3977056 8.69962833,10.9203837 C8.62891396,10.7435978 8.39909227,10.0541327 8.77034269,9.11716733 C9.27320041,8.96002429 10.3557413,9.63399332 10.5900979,9.78570425 L10.6354341,9.8154717 C11.1746312,9.66520367 11.7580247,9.58565001 12.3325789,9.58565001 C12.9071331,9.58565001 13.4905267,9.66520367 14.0297237,9.8154717 C14.0297237,9.8154717 15.3291002,8.94038141 15.8948151,9.11716733 C16.2660655,10.0541327 16.0362438,10.7435978 15.9655295,10.9203837 C16.398655,11.3977056 16.6638339,11.9987778 16.6638339,12.7412786 C16.6638339,15.3488709 15.0727606,15.9234251 13.561241,16.0913717 C13.8087413,16.3035148 14.0208844,16.7101224 14.0208844,17.3465517 C14.0208844,18.1169304 14.0145557,18.7607345 14.0126084,19.0744711 L14.0120451,19.2116431 C14.0120451,19.3884291 14.1357953,19.6005722 14.4805278,19.5386971 L14.3836403,19.5493484 Z" id="" fill="#FFFFFF" fill-rule="nonzero"></path>
                </g>
            </g>
        </g>
    </g>
</svg>