<?xml version="1.0" encoding="UTF-8"?>
<svg width="330px" height="237px" viewBox="0 0 330 237" version="1.1" xmlns="http://www.w3.org/2000/svg" xmlns:xlink="http://www.w3.org/1999/xlink">
    <title>Illustration</title>
    <g id="-1440-desktop-designs" stroke="none" stroke-width="1" fill="none" fill-rule="evenodd">
        <g id="Desktop--1440px-No-search-results" transform="translate(-606.000000, -322.000000)">
            <g id="Page-content" transform="translate(270.000000, 268.000000)">
                <g id="Illustration" transform="translate(336.000000, 54.000000)">
                    <path d="M275.236,35.7935 L275.106,81.5455 C272.215,83.2255 269.652,84.7145 266.989,86.2625 L267.119,40.5105 C269.782,38.9625 272.345,37.4735 275.236,35.7935" id="Fill-1" fill="#8F3B9D"></path>
                    <path d="M266.6774,30.6709 L266.5474,76.4229 C228.0664,57.4219 184.3484,50.0819 134.8864,55.4279 C101.6174,59.0199 73.7244,68.4539 51.2044,83.0859 C28.6844,97.7169 16.4804,114.9559 13.4734,134.1719 L13.6034,88.4199 C16.6104,69.2039 28.8144,51.9649 51.3344,37.3339 C73.8544,22.7019 101.7474,13.2679 135.0164,9.6759 C184.4784,4.3299 228.1954,11.6699 266.6774,30.6709" id="Fill-3" fill="#8F3B9D"></path>
                    <path d="M316.551608,95.9532 L316.4214,141.7052 C316.4594,128.3612 311.2944,115.4602 300.9024,103.0372 C294.2414,95.1012 285.7294,87.9092 275.1064,81.5452 L275.2364,35.7932 C285.8594,42.1572 294.3714,49.3492 301.0304,57.2852 C311.4234,69.7082 316.5894,82.6092 316.551608,95.9532" id="Fill-5" fill="#8F3B9D"></path>
                    <path d="M37.7374,141.4068 L37.8674,95.6548 C37.9344,71.8838 58.1284,48.6388 92.7404,35.1078 C139.5434,16.8098 200.0144,18.0838 244.1194,38.5658 C248.0504,40.3918 251.7294,42.2958 255.1674,44.2808 C276.2694,56.4648 288.1224,71.6188 291.2824,89.4038 C291.3524,89.7898 291.6294,90.1598 291.6434,90.1738 L291.5134,135.9258 C291.4994,135.9118 291.2234,135.5418 291.1534,135.1558 C287.9934,117.3718 276.1394,102.2168 255.0374,90.0318 C251.6004,88.0478 247.9204,86.1438 243.9894,84.3178 C199.8844,63.8358 139.4134,62.5618 92.6114,80.8598 C57.9984,94.3908 37.8044,117.6358 37.7374,141.4068" id="Fill-7" fill="#8F3B9D"></path>
                    <path d="M113.7243,52.0889 L113.5953,97.8409 C107.9473,94.5809 102.1853,91.2539 96.0073,87.6869 L96.1373,41.9349 C102.3143,45.5019 108.0773,48.8279 113.7243,52.0889" id="Fill-9" fill="#8F3B9D"></path>
                    <path d="M267.083735,95.9332 L266.9536,141.6852 C266.9936,127.3362 258.1306,112.4442 237.7356,100.2732 C237.2896,100.0072 236.8396,99.7422 236.3886,99.4822 C216.6406,88.0802 192.3056,82.4792 164.2706,82.3902 C147.3396,82.3322 131.3936,84.6582 116.0906,89.4002 L116.2196,43.6482 C131.5236,38.9062 147.4696,36.5802 164.3996,36.6382 C192.4356,36.7272 216.7696,42.3282 236.5176,53.7302 C236.9686,53.9902 237.4196,54.2552 237.8656,54.5212 C258.2606,66.6922 267.1236,81.5842 267.083735,95.9332" id="Fill-11" fill="#8F3B9D"></path>
                    <path d="M219.6481,64.4444 L219.5181,110.1964 C216.9561,111.6854 214.3921,113.1754 211.5861,114.8054 L211.7161,69.0534 C214.5211,67.4234 217.0851,65.9334 219.6481,64.4444" id="Fill-13" fill="#8F3B9D"></path>
                    <path d="M13.6037,88.42 L13.4737,134.172 C9.0447,134.238 4.8597,134.313 0.1027,134.387 L0.2317,88.635 C4.9887,88.561 9.1747,88.486 13.6037,88.42" id="Fill-15" fill="#8F3B9D"></path>
                    <path d="M62.5368,140.4878 L62.6668,94.7358 C62.7128,78.4398 74.2168,64.1388 95.8208,51.7658 L95.6908,97.5188 C74.0868,109.8908 62.5828,124.1918 62.5368,140.4878" id="Fill-17" fill="#8F3B9D"></path>
                    <path d="M87.2794,141.3516 L87.4094,95.5996 C87.4464,82.2506 97.6294,69.0656 116.9714,60.3976 C142.3954,48.9936 177.0214,47.8016 204.7064,57.3686 C206.6824,58.0476 208.5444,58.8256 210.7634,59.6776 L210.6334,105.4296 C208.4144,104.5776 206.5524,103.7996 204.5774,103.1206 C176.8914,93.5536 142.2664,94.7456 116.8414,106.1496 C97.4994,114.8186 87.3174,128.0026 87.2794,141.3516" id="Fill-19" fill="#8F3B9D"></path>
                    <path d="M217.56418,95.836 L217.4341,141.588 C217.4541,134.851 213.7031,128.074 205.8151,122.527 C204.3911,121.524 202.8881,120.547 201.3001,119.63 C200.8571,119.375 200.4081,119.123 199.9511,118.878 C197.8591,117.752 195.4961,116.8 193.0181,115.667 L193.1481,69.915 C195.6261,71.048 197.9891,72 200.0811,73.126 C200.5381,73.371 200.9871,73.623 201.4301,73.878 C203.0181,74.795 204.5211,75.773 205.9451,76.775 C213.8331,82.322 217.5841,89.099 217.56418,95.836" id="Fill-21" fill="#8F3B9D"></path>
                    <path d="M242.262406,96.0997 L242.1323,141.8517 C242.1653,130.4117 234.9423,119.0617 221.2943,111.1827 C220.7123,110.8467 220.1233,110.5187 219.5183,110.1967 L219.6483,64.4447 C220.2533,64.7667 220.8423,65.0947 221.4243,65.4307 C235.0723,73.3097 242.2943,84.6597 242.262406,96.0997" id="Fill-23" fill="#8F3B9D"></path>
                    <path d="M112.0094,141.6104 L112.1394,95.8584 C112.1674,86.0694 120.1424,76.3514 134.7594,70.6684 C148.4464,65.3554 163.2824,64.0064 179.2264,66.4144 C180.0564,66.5464 181.3854,66.6044 181.8834,66.3314 C185.0174,64.6594 187.9924,62.8634 191.2394,60.9764 L191.1104,106.7284 C187.8634,108.6154 184.8874,110.4114 181.7534,112.0834 C181.2554,112.3564 179.9264,112.2984 179.0974,112.1664 C163.1534,109.7574 148.3164,111.1074 134.6304,116.4204 C120.0124,122.1034 112.0374,131.8214 112.0094,141.6104" id="Fill-25" fill="#8F3B9D"></path>
                    <path d="M304.8473,96.0064 L304.7173,141.7584 C304.7153,142.2934 304.7053,142.8284 304.6863,143.3644 L304.8163,97.6124 C304.8353,97.0764 304.8453,96.5414 304.8473,96.0064" id="Fill-27" fill="#8F3B9D"></path>
                    <path d="M304.8161,97.6128 L304.6861,143.3648 C296.3141,143.4308 288.2851,143.4978 280.4561,143.5638 L280.5861,97.8118 C288.4151,97.7458 296.4441,97.6788 304.8161,97.6128" id="Fill-29" fill="#8F3B9D"></path>
                    <path d="M230.6666,96.1475 L230.5376,141.8995 C230.5116,150.9645 225.2326,159.0555 215.2326,166.2065 L215.3626,120.4545 C225.3626,113.3035 230.6416,105.2125 230.6666,96.1475" id="Fill-31" fill="#8F3B9D"></path>
                    <path d="M255.525,95.8492 L255.395,141.6012 C255.371,150.1412 251.752,158.7642 244.339,166.6612 C241.115,170.0962 237.004,173.2492 233.194,176.6092 L233.324,130.8572 C237.133,127.4972 241.245,124.3442 244.469,120.9092 C251.881,113.0122 255.501,104.3892 255.525,95.8492" id="Fill-33" fill="#8F3B9D"></path>
                    <path d="M98.8858129,141.3428 L99.0159,95.5908 C98.9879,105.5408 105.7099,115.3688 118.5899,122.8048 C120.5749,123.9508 122.7089,125.0418 124.9849,126.0658 C148.1169,136.4678 181.6069,136.5678 204.6369,126.2558 C206.2239,125.5468 207.1359,125.5198 208.6249,126.3798 C211.8739,128.2998 215.1409,130.2008 218.4249,132.0968 C220.0659,133.0448 221.7119,133.9908 223.3599,134.9368 C225.8259,136.3608 228.2909,137.7838 230.7569,139.2068 C231.3149,139.5298 231.7889,139.8858 232.3039,140.2328 L232.1759,185.9858 C231.6589,185.6378 231.1849,185.2818 230.6269,184.9588 C228.1609,183.5358 225.6959,182.1128 223.2299,180.6888 C221.5819,179.7428 219.9359,178.7968 218.2959,177.8488 C215.0119,175.9528 211.7439,174.0518 208.4949,172.1318 C207.0059,171.2718 206.0939,171.2988 204.5079,172.0078 C181.4769,182.3198 147.9879,182.2198 124.8549,171.8178 C122.5789,170.7938 120.4449,169.7028 118.4599,168.5568 C105.5799,161.1208 98.8579,151.2928 98.8858129,141.3428" id="Fill-35" fill="#8F3B9D"></path>
                    <path d="M74.0995793,140.0132 L74.2297,94.2612 C74.2167,98.8382 75.2537,103.6172 77.3957,108.6042 C81.6807,118.5772 89.4777,126.7422 100.4347,133.0682 C112.0617,139.7812 127.2467,144.4232 145.5617,146.9532 C169.9547,150.3132 192.9417,147.6152 214.5157,139.8272 L214.3857,185.5802 C192.8117,193.3672 169.8247,196.0652 145.4317,192.7052 C127.1177,190.1752 111.9317,185.5332 100.3057,178.8202 C89.3487,172.4942 81.5507,164.3292 77.2667,154.3562 C75.1237,149.3692 74.0867,144.5902 74.0995793,140.0132" id="Fill-37" fill="#8F3B9D"></path>
                    <path d="M49.423346,141.2168 L49.5535,95.4648 C49.5335,102.5428 51.4605,109.7998 55.6265,117.0038 C61.4215,126.9888 70.5705,135.6148 83.0215,142.8028 C87.1225,145.1718 91.5835,147.3838 96.3985,149.4368 C122.6075,160.5918 152.0465,164.4238 184.1925,161.7668 L184.0625,207.5188 C151.9175,210.1758 122.4775,206.3438 96.2695,195.1888 C91.4535,193.1358 86.9925,190.9238 82.8915,188.5558 C70.4415,181.3668 61.2915,172.7408 55.4965,162.7568 C51.3305,155.5518 49.4035,148.2948 49.423346,141.2168" id="Fill-39" fill="#8F3B9D"></path>
                    <path d="M59.3312,136.9976 L59.2012,182.7496 C59.2002,183.1816 58.8032,183.5876 57.8882,184.0496 C55.3942,185.2986 53.1742,186.7396 50.5112,188.2866 L50.6412,142.5346 C53.3042,140.9876 55.5242,139.5476 58.0182,138.2976 C58.9322,137.8356 59.3302,137.4296 59.3312,136.9976" id="Fill-41" fill="#8F3B9D"></path>
                    <path d="M24.6546924,140.4473 L24.7839,94.6953 C24.7699,99.7913 25.5679,104.9743 27.1559,110.2353 C30.6799,121.9363 38.5269,132.6703 50.6409,142.5343 L50.5109,188.2863 C38.3969,178.4223 30.5499,167.6883 27.0269,155.9873 C25.4379,150.7263 24.6399,145.5433 24.6546924,140.4473" id="Fill-43" fill="#8F3B9D"></path>
                    <path d="M280.5856,97.8116 L280.4556,143.5636 C275.8606,175.0616 247.7326,195.8916 195.8276,206.2606 L195.9576,160.5086 C247.8616,150.1396 275.9906,129.3096 280.5856,97.8116" id="Fill-45" fill="#8F3B9D"></path>
                    <path d="M187.1715,168.2388 L187.0415,213.9908 C186.0295,211.7888 185.0615,209.7118 184.0625,207.5188 L184.1925,161.7668 C185.1905,163.9598 186.1595,166.0368 187.1715,168.2388" id="Fill-47" fill="#8F3B9D"></path>
                    <path d="M303.8561,104.8462 L303.7271,150.5982 C302.0131,163.4172 292.4121,181.1682 269.2201,195.7592 C234.6251,217.5242 191.3791,225.6012 140.9801,221.6452 L141.1101,175.8932 C191.5091,179.8492 234.7541,171.7722 269.3501,150.0072 C292.5421,135.4162 302.1421,117.6652 303.8561,104.8462" id="Fill-49" fill="#8F3B9D"></path>
                    <path d="M66.4752,153.4585 L66.3452,199.2105 C63.6112,200.7995 61.0482,202.2895 58.2142,203.9365 L58.3442,158.1845 C61.1782,156.5375 63.7412,155.0475 66.4752,153.4585" id="Fill-51" fill="#8F3B9D"></path>
                    <path d="M329.775,94.9781 L329.64,140.7321 C329.618,151.4861 326.34,162.5991 319.852,173.9811 C313.409,185.2961 302.835,195.3321 289.275,204.3121 C288.826,204.6261 288.534,204.9851 288.152,205.3451 C283.999,207.7701 279.8,210.1941 275.625,212.6191 C274.838,212.9561 273.986,213.2471 273.267,213.6061 C251.019,224.8321 225.313,232.0391 196.352,235.2931 C190.986,235.8771 185.576,236.2361 179.874,236.7301 L180.008,190.9771 C185.688,190.4821 191.121,190.1451 196.487,189.5401 C225.448,186.2841 251.131,179.0781 273.402,167.8531 C274.121,167.4931 274.973,167.2011 275.759,166.8651 L288.287,159.5901 C288.669,159.2311 288.961,158.8721 289.409,158.5581 C302.969,149.5781 313.544,139.5421 319.987,128.2281 C326.475,116.8451 329.753,105.7321 329.775,94.9781" id="Fill-53" fill="#8F3B9D"></path>
                    <path d="M101.317,160.2457 L101.187,205.9977 C101.187,206.1557 101.154,206.3277 101.09,206.5177 C100.402,208.6617 99.929,210.8127 99.314,213.1627 L99.443,167.4117 C100.059,165.0607 100.532,162.9097 101.22,160.7657 C101.284,160.5757 101.317,160.4037 101.317,160.2457" id="Fill-55" fill="#8F3B9D"></path>
                    <path d="M99.4435,167.4112 L99.3135,213.1632 C86.9485,209.4392 76.2355,204.7052 66.3455,199.2102 L66.4755,153.4582 C76.3645,158.9532 87.0785,163.6872 99.4435,167.4112" id="Fill-57" fill="#8F3B9D"></path>
                    <path d="M111.123694,215.6177 L111.2537,169.8657 C111.2527,170.2387 111.3857,170.4877 111.7397,170.6927 C112.2427,170.9827 113.1927,171.1817 114.8397,171.5157 C119.6447,172.4927 124.4797,173.4027 129.4287,174.3627 L129.2987,220.1147 C124.3507,219.1547 119.5157,218.2447 114.7097,217.2677 C113.0627,216.9337 112.1127,216.7347 111.6097,216.4447 C111.2557,216.2397 111.1227,215.9907 111.123694,215.6177" id="Fill-59" fill="#8F3B9D"></path>
                    <path d="M141.11,175.8936 L140.98,221.6456 C140.235,223.8226 139.49,225.8996 138.646,228.3156 L138.776,182.5636 C139.619,180.1476 140.365,178.0706 141.11,175.8936" id="Fill-61" fill="#8F3B9D"></path>
                    <path d="M180.0133,190.9805 L179.8833,236.7325 C179.5973,234.0265 179.3123,231.5685 179.0553,229.1265 L179.1843,183.3745 C179.4423,185.8165 179.7263,188.2735 180.0133,190.9805" id="Fill-63" fill="#8F3B9D"></path>
                    <g id="Group-67" transform="translate(0.000200, 0.000000)" fill="#D355E7">
                        <path d="M215.3627,120.4541 C218.1157,122.0431 220.7527,123.5661 223.3897,125.0891 C250.1297,108.2831 247.5347,80.5051 221.4247,65.4311 C220.8417,65.0951 220.2537,64.7671 219.6477,64.4441 C217.0847,65.9331 214.5207,67.4231 211.7167,69.0541 C223.4857,76.2121 229.8907,84.5961 230.6037,94.3441 C231.3157,104.1431 226.0207,112.8321 215.3627,120.4541 M240.9917,135.2841 C273.0847,115.5221 279.4817,79.3571 237.8657,54.5211 C237.4197,54.2551 236.9677,53.9901 236.5167,53.7301 C216.7687,42.3281 192.4347,36.7271 164.3997,36.6381 C147.4687,36.5801 131.5237,38.9061 116.2197,43.6481 C117.6977,44.5011 119.0747,45.2491 120.3547,45.9891 C121.2347,46.4961 122.0677,46.9991 122.8567,47.5291 C122.9717,47.6071 123.0857,47.6791 123.1987,47.7441 C124.5077,48.4991 125.6997,48.4021 127.4597,47.9761 C162.2597,39.7081 194.8347,42.1331 223.7587,56.1431 C225.7587,57.1121 227.6717,58.1241 229.4877,59.1731 C257.4697,75.3291 263.5927,100.5341 244.4687,120.9091 C241.2447,124.3441 237.1337,127.4971 233.3237,130.8571 C235.6887,132.2221 238.2827,133.7201 240.9917,135.2841 M289.4147,158.5561 C288.9587,158.8701 288.6607,159.2421 288.2917,159.5901 C284.1187,162.0151 279.9317,164.4481 275.7587,166.8721 C274.9747,167.1951 274.1197,167.4931 273.4077,167.8571 C251.1397,179.0881 225.4487,186.2801 196.4777,189.5321 C191.1247,190.1361 185.6967,190.4841 180.0127,190.9801 C179.7257,188.2741 179.4417,185.8161 179.1837,183.3741 C251.1987,179.3861 304.9537,147.5161 314.7557,109.5381 C319.4667,91.3231 314.9117,73.8781 301.0307,57.2851 C294.3717,49.3491 285.8587,42.1571 275.2357,35.7931 C272.3447,37.4731 269.7817,38.9631 267.1187,40.5111 C279.5507,48.3311 289.1287,57.0791 295.5987,66.9181 C302.0847,76.7991 305.1987,86.9951 304.8157,97.6131 C296.4437,97.6791 288.4147,97.7461 280.5857,97.8111 C275.9907,129.3091 247.8617,150.1391 195.9577,160.5091 C196.8537,162.4291 197.8377,164.5141 198.8787,166.7161 C215.1797,164.1501 229.7867,159.9631 242.7977,154.0291 C270.4297,141.4251 286.3247,124.8811 290.8857,105.3091 C295.5137,105.1441 299.6847,104.9951 303.8557,104.8461 C302.1417,117.6651 292.5417,135.4161 269.3497,150.0071 C234.7547,171.7721 191.5087,179.8491 141.1097,175.8931 C140.3647,178.0701 139.6187,180.1471 138.7757,182.5641 C148.3797,183.0271 157.6397,183.4741 167.0147,183.9211 C167.2707,186.2961 167.5417,188.7131 167.8127,191.1621 C167.1557,191.1951 166.7997,191.2371 166.4557,191.2371 C163.7557,191.2121 161.0557,191.2201 158.3837,191.1461 C123.9457,190.1861 92.8627,183.8061 65.3347,171.6901 C61.8977,170.1841 58.5457,168.6281 55.1647,167.0891 C50.8357,164.5901 46.5077,162.0901 42.1787,159.5911 C38.5777,156.9341 34.8337,154.3441 31.4467,151.5971 C11.1097,135.2031 0.7767,116.8971 0.1347,96.7621 C4.4597,96.0911 8.7167,96.0091 13.1167,95.9091 C13.7957,117.4341 25.8317,136.4111 49.8567,152.9701 C55.6947,149.5771 61.3627,146.2841 67.2157,142.8821 C67.8177,143.2301 68.4007,143.5371 68.9387,143.8481 C69.2077,144.0031 69.4657,144.1591 69.7097,144.3221 C71.5997,145.5831 73.5597,146.7991 75.5847,147.9671 C82.7917,152.1281 90.8327,155.7131 99.5947,158.7881 C100.0027,158.9281 100.3347,159.0681 100.5937,159.2171 C101.2707,159.6081 101.4537,160.0661 101.2197,160.7661 C100.5317,162.9101 100.0587,165.0611 99.4437,167.4111 C87.0777,163.6871 76.3637,158.9541 66.4747,153.4581 C63.7407,155.0471 61.1777,156.5371 58.3437,158.1841 C77.8087,169.3071 100.6677,176.7961 127.1647,180.8591 C127.9517,178.5921 128.6827,176.5231 129.4277,174.3631 C124.4797,173.4031 119.6447,172.4931 114.8397,171.5161 C113.1927,171.1821 112.2417,170.9821 111.7387,170.6921 C111.0457,170.2911 111.2007,169.7181 111.5497,168.3791 C111.9827,166.6331 112.4447,164.9041 112.9627,162.9091 C136.8267,168.8841 161.3397,170.7291 187.1717,168.2391 C186.1597,166.0371 185.1897,163.9601 184.1917,161.7671 C152.0467,164.4231 122.6077,160.5921 96.3987,149.4361 C91.5827,147.3841 87.1217,145.1711 83.0207,142.8031 C70.5707,135.6151 61.4207,126.9891 55.6257,117.0041 C40.1737,90.2821 55.5207,62.8141 86.8187,46.5691 C89.7427,48.2571 92.6957,49.9621 95.8207,51.7661 C68.2637,67.5481 57.1397,86.4671 65.2657,108.6621 C69.4057,119.9351 78.4177,129.4981 91.8607,137.2591 C96.3677,139.8611 101.3707,142.2601 106.8577,144.4541 C151.0477,162.1151 204.3737,155.5351 232.3037,140.2331 C231.7887,139.8861 231.3147,139.5301 230.7567,139.2071 C228.2907,137.7841 225.8257,136.3601 223.3597,134.9371 C221.7117,133.9911 220.0657,133.0441 218.4247,132.0971 C215.1407,130.2011 211.8737,128.3001 208.6247,126.3801 C207.1347,125.5191 206.2237,125.5461 204.6367,126.2561 C181.6067,136.5671 148.1167,136.4681 124.9847,126.0651 C122.7087,125.0411 120.5747,123.9511 118.5897,122.8051 C95.8217,109.6601 92.2937,89.0411 111.2867,73.4821 C128.3527,59.5121 160.9537,53.9341 188.5207,60.2651 C189.3227,60.4471 190.1097,60.6871 191.2397,60.9761 C187.9927,62.8641 185.0167,64.6601 181.8837,66.3311 C181.3847,66.6041 180.0557,66.5461 179.2257,66.4141 C163.2817,64.0061 148.4457,65.3551 134.7597,70.6681 C111.4507,79.7301 105.0297,99.0541 120.7937,112.5591 C122.8657,114.3331 125.1767,115.9461 127.6777,117.3911 C144.9197,127.3451 171.3447,129.3641 193.0247,121.6961 C219.4897,112.3281 225.7247,90.6861 205.9447,76.7751 C204.5207,75.7721 203.0177,74.7951 201.4297,73.8781 C200.9867,73.6221 200.5377,73.3711 200.0807,73.1251 C197.9887,72.0001 195.6257,71.0481 193.1477,69.9141 C198.9717,66.5301 204.7117,63.1951 210.7627,59.6771 C208.5447,58.8251 206.6817,58.0471 204.7067,57.3691 C177.0207,47.8021 142.3957,48.9941 116.9707,60.3981 C84.0077,75.1701 77.6497,103.0591 102.7617,122.5241 C105.0917,124.3291 107.6127,126.0091 110.2947,127.5581 C134.5037,141.5351 171.9357,144.8811 202.5577,135.0691 C204.1797,134.5441 205.2837,134.4371 206.5997,135.1971 C207.8057,135.9791 208.7707,136.5581 209.7837,137.1421 C211.2577,137.9941 212.8327,138.8571 214.5147,139.8281 C192.9417,147.6151 169.9547,150.3131 145.5617,146.9541 C127.2467,144.4231 112.0617,139.7811 100.4347,133.0681 C89.4777,126.7431 81.6797,118.5781 77.3957,108.6041 C67.4347,85.4151 81.3607,66.6961 113.7237,52.0891 C108.0767,48.8281 102.3147,45.5011 96.1367,41.9341 C126.1857,29.8521 158.5117,26.1781 193.6437,31.2011 C212.8667,33.9591 231.3367,39.9981 246.2467,48.6071 C264.4867,59.1381 277.4077,73.5121 279.9007,90.4381 C283.6147,90.3551 287.3437,90.2641 291.6427,90.1731 C291.6297,90.1601 291.3517,89.7891 291.2827,89.4031 C288.1227,71.6191 276.2687,56.4641 255.1677,44.2801 C251.7287,42.2951 248.0507,40.3911 244.1197,38.5661 C200.0137,18.0831 139.5427,16.8091 92.7407,35.1071 C48.5617,52.3791 27.8737,85.4741 42.5437,115.2911 C46.1137,122.5491 51.2377,129.3851 58.4317,135.6831 C59.6227,136.7331 59.7697,137.4121 58.0177,138.2981 C55.5247,139.5471 53.3037,140.9871 50.6407,142.5351 C38.5267,132.6701 30.6797,121.9361 27.1557,110.2351 C20.9107,89.5541 26.8867,70.0731 46.3897,52.3791 C69.5457,31.3831 102.8507,18.8701 145.5647,15.5181 C188.1357,12.1831 225.7947,19.2421 258.4317,35.4621 C261.1517,33.8821 263.7157,32.3921 266.6767,30.6711 C228.1947,11.6701 184.4777,4.3291 135.0167,9.6761 C101.7467,13.2671 73.8547,22.7021 51.3347,37.3341 C28.8137,51.9651 16.6097,69.2041 13.6037,88.4201 C9.1747,88.4861 4.9887,88.5601 0.2317,88.6351 C1.2797,84.5221 2.0007,80.5001 3.3927,76.5531 C10.4807,56.4921 26.6567,39.2211 52.9537,25.5821 C96.5177,2.9731 147.4667,-4.4009 204.5027,3.3201 C233.5107,7.2411 258.6757,15.2461 279.2477,27.1231 C283.3347,29.4831 287.2407,31.9951 290.9597,34.6601 C330.0647,62.6971 339.3997,94.1211 319.9897,128.2331 C313.5387,139.5371 302.9657,149.5841 289.4147,158.5561" id="Fill-65"></path>
                    </g>
                    <path d="M167.817,191.1558 L167.683,236.9098 C167.032,236.9548 166.672,236.9998 166.336,236.9998 C163.619,236.9548 160.925,236.9778 158.254,236.8878 C123.815,235.9448 92.743,229.5468 65.196,217.4458 C61.761,215.9418 58.417,214.3698 55.026,212.8428 C50.716,210.3508 46.383,207.8368 42.05,205.3448 C38.458,202.6958 34.709,200.0918 31.318,197.3518 C10.979,180.9638 0.651,162.6438 0,142.5058 L0.135,96.7518 C0.786,116.8898 11.113,135.2098 31.453,151.5978 C34.843,154.3378 38.57,156.9418 42.185,159.5908 C46.518,162.0828 50.828,164.5968 55.161,167.0888 C58.551,168.6378 61.896,170.1868 65.331,171.6918 C92.855,183.8148 123.949,190.1908 158.388,191.1558 C161.06,191.2228 163.754,191.2008 166.448,191.2458 C166.807,191.2458 167.167,191.2008 167.817,191.1558" id="Fill-68" fill="#8F3B9D"></path>
                    <path d="M295.0002,88.0883 L225.0002,88.0883 C224.309844,88.0883 223.684844,88.368122 223.232433,88.820533 C222.780022,89.2729441 222.5002,89.8979441 222.5002,90.5883 L222.5002,109.78013 C222.5002,110.470486 222.780022,111.095486 223.232433,111.547897 C223.684844,112.000308 224.309844,112.28013 225.0002,112.28013 L227.569651,112.28013 L226.583027,118.925676 L232.208466,112.28013 L295.0002,112.28013 C295.690556,112.28013 296.315556,112.000308 296.767967,111.547897 C297.220378,111.095486 297.5002,110.470486 297.5002,109.78013 L297.5002,90.5883 C297.5002,89.8979441 297.220378,89.2729441 296.767967,88.820533 C296.315556,88.368122 295.690556,88.0883 295.0002,88.0883 Z" id="Rectangle" stroke="#D355E7" fill-opacity="0.72" fill="#FFFFFF"></path>
                    <text id="Oh!-@*?%" font-size="13" font-weight="normal" fill="#000000">
                        <tspan x="234.974565" y="108.36">Oh! @*?</tspan>
                        <tspan x="254.220659" y="124.36">%</tspan>
                    </text>
                </g>
            </g>
        </g>
    </g>
</svg>