<?xml version="1.0" encoding="UTF-8"?>
<svg width="23px" height="24px" viewBox="0 0 23 24" version="1.1" xmlns="http://www.w3.org/2000/svg" xmlns:xlink="http://www.w3.org/1999/xlink">
    <title>Group 6</title>
    <g id="-1440-desktop-designs" stroke="none" stroke-width="1" fill="none" fill-rule="evenodd">
        <g id="Desktop--1440-Homepage" transform="translate(-1094.000000, -2760.000000)">
            <g id="Footer" transform="translate(0.000000, 2702.000000)">
                <rect id="Rectangle-6" fill="#0D282E" x="0" y="0" width="1481" height="508"></rect>
                <g id="Group-6" transform="translate(1094.000000, 58.000000)">
                    <path d="M16.6761507,7.44327864 L16.6761507,13.8891633 L14.5993714,15.0306074 L10.812052,12.1568414 L10.812052,19.8305519 L12.2083689,20.6252881 C12.3245005,20.6913863 12.4669719,20.6909515 12.5826978,20.6241457 L19.6238545,16.5594585 C19.7403105,16.4922313 19.812052,16.3679794 19.812052,16.233512 L19.812052,8.04831116 C19.812052,7.91243972 19.7388176,7.78711673 19.6204433,7.7204191 L17.8662107,6.73200214 L17.8662107,6.73200214 L16.6761507,7.44327864 Z" id="Path-4" fill="#FFFFFF"></path>
                    <path d="M10.6484386,3.40361953 L10.6484386,11.002322 L8.25557592,12.3882082 L4.812052,9.56219743 L4.812052,16.7750469 L6.19224607,17.6129354 C6.31269068,17.686055 6.46388948,17.6857727 6.58406021,17.6122039 L13.6322006,13.2973165 C13.7439298,13.2289156 13.812052,13.1073368 13.812052,12.9763326 L13.812052,4.24457053 C13.812052,4.11366009 13.7440266,3.99215427 13.6324252,3.92372423 L11.6888657,2.73200214 L11.6888657,2.73200214 L10.6484386,3.40361953 Z" id="Path-4" fill="#FFFFFF" transform="translate(9.312052, 10.232002) scale(-1, -1) translate(-9.312052, -10.232002) "></path>
                    <path d="M12.3015072,1.38644318 C12.1510012,1.29559875 11.9815266,1.25017654 11.812052,1.25017654 C11.6425774,1.25017654 11.4731028,1.29559875 11.3225968,1.38644318 L3.0508455,6.37921819 C2.76676814,6.55068543 2.59313196,6.85830566 2.59313196,7.1901203 L2.59313196,17.273884 C2.59313196,17.6056986 2.76676814,17.9133188 3.0508455,18.0847861 L11.3225968,23.0775611 C11.4731028,23.1684055 11.6425774,23.2138277 11.812052,23.2138277 C11.9815266,23.2138277 12.1510012,23.1684055 12.3015072,23.0775611 L20.5732585,18.0847861 C20.8573359,17.9133188 21.030972,17.6056986 21.030972,17.273884 L21.030972,7.1901203 C21.030972,6.85830566 20.8573359,6.55068543 20.5732585,6.37921819 L12.3015072,1.38644318 Z" id="Polygon" stroke="#FFFFFF" stroke-width="0.614718795"></path>
                </g>
            </g>
        </g>
    </g>
</svg>