<?xml version="1.0" encoding="UTF-8"?>
<svg id="SVGDoc" width="22" height="23" xmlns="http://www.w3.org/2000/svg" version="1.1" xmlns:xlink="http://www.w3.org/1999/xlink" xmlns:avocode="https://avocode.com/" viewBox="0 0 22 23"><defs></defs><desc>Generated with Avocode.</desc><g><g><title>Shape</title><path d="M21.875,22.33649c0,0.319 -0.15955,0.47852 -0.47852,0.47852h-3.39648c-0.34045,0 -0.5,-0.15952 -0.5,-0.47852v-3.41797c0,-0.319 0.15955,-0.47852 0.5,-0.47852h3.39648c0.31897,0 0.47852,0.15952 0.47852,0.47852zM13.125,22.33649c0,0.319 -0.125,0.47852 -0.47852,0.47852h-3.41797c-0.31897,0 -0.47852,-0.15952 -0.47852,-0.47852v-3.41797c0,-0.319 0.15955,-0.47852 0.47852,-0.47852h3.41797c0.35352,0 0.47852,0.15952 0.47852,0.47852zM4.375,22.33649c0,0.319 -0.15955,0.47852 -0.47852,0.47852h-3.41797c-0.31897,0 -0.47852,-0.15952 -0.47852,-0.47852v-3.41797c0,-0.319 0.15955,-0.47852 0.47852,-0.47852h3.41797c0.31897,0 0.47852,0.15952 0.47852,0.47852zM21.875,13.58649c0,0.319 -0.15955,0.47852 -0.47852,0.47852h-3.39648c-0.34045,0 -0.5,-0.15952 -0.5,-0.47852v-3.41797c0,-0.319 0.15955,-0.47852 0.5,-0.47852h3.39648c0.31897,0 0.47852,0.15952 0.47852,0.47852zM13.125,13.58649c0,0.319 -0.125,0.47852 -0.47852,0.47852h-3.41797c-0.31897,0 -0.47852,-0.15952 -0.47852,-0.47852v-3.41797c0,-0.319 0.15955,-0.47852 0.47852,-0.47852h3.41797c0.35352,0 0.47852,0.15952 0.47852,0.47852zM4.375,13.58649c0,0.319 -0.15955,0.47852 -0.47852,0.47852h-3.41797c-0.31897,0 -0.47852,-0.15952 -0.47852,-0.47852v-3.41797c0,-0.319 0.15955,-0.47852 0.47852,-0.47852h3.41797c0.31897,0 0.47852,0.15952 0.47852,0.47852zM21.875,4.83649c0,0.319 -0.15955,0.47852 -0.47852,0.47852h-3.39648c-0.34045,0 -0.5,-0.15952 -0.5,-0.47852v-3.41797c0,-0.319 0.15955,-0.47852 0.5,-0.47852h3.39648c0.31897,0 0.47852,0.15952 0.47852,0.47852zM13.125,4.83649c0,0.319 -0.125,0.47852 -0.47852,0.47852h-3.41797c-0.31897,0 -0.47852,-0.15952 -0.47852,-0.47852v-3.41797c0,-0.319 0.15955,-0.47852 0.47852,-0.47852h3.41797c0.35352,0 0.47852,0.15952 0.47852,0.47852zM4.375,4.83649c0,0.319 -0.15955,0.47852 -0.47852,0.47852h-3.41797c-0.31897,0 -0.47852,-0.15952 -0.47852,-0.47852v-3.41797c0,-0.319 0.15955,-0.47852 0.47852,-0.47852h3.41797c0.31897,0 0.47852,0.15952 0.47852,0.47852z" fill="#ffffff" fill-opacity="1"></path></g></g></svg>