<?xml version="1.0" encoding="UTF-8"?>
<svg id="SVGDoc" width="22" height="23" xmlns="http://www.w3.org/2000/svg" version="1.1" xmlns:xlink="http://www.w3.org/1999/xlink" xmlns:avocode="https://avocode.com/" viewBox="0 0 22 23"><defs></defs><desc>Generated with Avocode.</desc><g><g><title>Shape</title><path d="M4.32629,4.42501c0,0.22091 -0.17909,0.4 -0.4,0.4h-3.35625c-0.22091,0 -0.4,-0.17909 -0.4,-0.4v-3.575c0,-0.22091 0.17909,-0.4 0.4,-0.4h3.35625c0.22091,0 0.4,0.17909 0.4,0.4zM21.32629,4.42501c0,0.22091 -0.17909,0.4 -0.4,0.4h-12.35625c-0.22091,0 -0.4,-0.17909 -0.4,-0.4v-3.575c0,-0.22091 0.17909,-0.4 0.4,-0.4h12.35625c0.22091,0 0.4,0.17909 0.4,0.4zM4.32629,13.42501c0,0.22091 -0.17909,0.4 -0.4,0.4h-3.35625c-0.22091,0 -0.4,-0.17909 -0.4,-0.4v-3.575c0,-0.22091 0.17909,-0.4 0.4,-0.4h3.35625c0.22091,0 0.4,0.17909 0.4,0.4zM21.32629,13.42501c0,0.22091 -0.17909,0.4 -0.4,0.4h-12.35625c-0.22091,0 -0.4,-0.17909 -0.4,-0.4v-3.575c0,-0.22091 0.17909,-0.4 0.4,-0.4h12.35625c0.22091,0 0.4,0.17909 0.4,0.4zM4.32629,22.42501c0,0.22091 -0.17909,0.4 -0.4,0.4h-3.35625c-0.22091,0 -0.4,-0.17909 -0.4,-0.4v-3.575c0,-0.22091 0.17909,-0.4 0.4,-0.4h3.35625c0.22091,0 0.4,0.17909 0.4,0.4zM21.32629,22.42501c0,0.22091 -0.17909,0.4 -0.4,0.4h-12.35625c-0.22091,0 -0.4,-0.17909 -0.4,-0.4v-3.575c0,-0.22091 0.17909,-0.4 0.4,-0.4h12.35625c0.22091,0 0.4,0.17909 0.4,0.4z" fill="#ffffff" fill-opacity="1"></path></g></g></svg>