<?xml version="1.0" encoding="UTF-8"?>
<svg id="SVGDoc" width="26" height="27" xmlns="http://www.w3.org/2000/svg" version="1.1"
     viewBox="0 0 26 27"><defs></defs><desc>Generated with Avocode.</desc><g><g><title>Shape</title><path d="M4.80246,3l1.75026,5.1825h-4.55272zM19,9.8075h4.72559l-8.95424,12.1925zM11.11862,22l-8.72595,-12.1925h4.69273zM17.30795,9.8075l-4.36298,12.49219l-4.16003,-12.49219zM8,7.39539l-1.62485,-4.90039h5.04787zM17,8.1825h-7.55554l3.55554,-5.12891zM14.61916,2.495h5.22542l-1.62343,4.64648zM23.92851,8.1825h-4.3376l1.75026,-5.00194zM25.88171,8.36023l-3.55127,-6.7793c-0.10147,-0.20312 -0.27057,-0.37239 -0.50731,-0.5078c-0.23676,-0.13542 -0.46506,-0.20314 -0.68489,-0.20314c-0.01691,0 -8.21863,0 -8.21863,0h-8.0157c-0.21983,0 -0.44814,0.06772 -0.68489,0.20314c-0.21902,0.13541 -0.40584,0.30467 -0.50731,0.5078l-3.55127,6.65234c-0.10146,0.20314 -0.16045,0.44011 -0.16045,0.71094c0.05054,0.27084 0.12663,0.49089 0.26192,0.66017l12.17574,17.0117c0.1353,0.16927 0.29594,0.25391 0.48196,0.25391c0.08038,0 0.1691,-0.02115 0.25366,-0.06348c0.08455,-0.04231 0.16064,-0.10579 0.22829,-0.19043l12.37868,-16.85937c0.27057,-0.38931 0.3213,-0.8125 0.15219,-1.26953c-0.01691,-0.05077 -0.03381,-0.09309 -0.05072,-0.12695z" fill="#ffffff" fill-opacity="1"></path></g></g></svg>
