<?xml version="1.0" encoding="UTF-8"?>
<svg width="22px" height="21px" viewBox="0 0 22 21" version="1.1" xmlns="http://www.w3.org/2000/svg" xmlns:xlink="http://www.w3.org/1999/xlink">
    <title>Magnifier-add - simple-line-icons</title>
    <g id="Page-1" stroke="none" stroke-width="1" fill="none" fill-rule="evenodd">
        <g id="Desktop--NFT-Information" transform="translate(-730.000000, -912.000000)" fill="#FFFFFF" fill-rule="nonzero">
            <g id="NFT-image" transform="translate(175.000000, 388.000000)">
                <g id="Magnifier-add---simple-line-icons" transform="translate(555.960938, 524.250000)">
                    <path d="M19.8828125,18.9257812 L14.3554688,13.359375 C15.6184896,11.8489583 16.25,10.1106771 16.25,8.14453125 C16.25,7.03776042 16.0351562,5.98307292 15.6054688,4.98046875 C15.1757812,3.97786458 14.5996094,3.11197917 13.8769531,2.3828125 C13.1542969,1.65364583 12.2916667,1.07421875 11.2890625,0.64453125 C10.2864583,0.21484375 9.23177083,0 8.125,0 C6.65364583,0 5.29296875,0.361328125 4.04296875,1.08398438 C2.79296875,1.80664062 1.80664062,2.79296875 1.08398438,4.04296875 C0.361328125,5.29296875 0,6.65690104 0,8.13476562 C0,9.61263021 0.361328125,10.9765625 1.08398438,12.2265625 C1.80664062,13.4765625 2.79296875,14.4628906 4.04296875,15.1855469 C5.29296875,15.9082031 6.65364583,16.2695312 8.125,16.2695312 C10.15625,16.2695312 11.9401042,15.5989583 13.4765625,14.2578125 L18.984375,19.8046875 C19.0364583,19.8567708 19.0917969,19.8990885 19.1503906,19.9316406 C19.2089844,19.9641927 19.2708333,19.983724 19.3359375,19.9902344 C19.4010417,19.9967448 19.4661458,19.9967448 19.53125,19.9902344 C19.5963542,19.983724 19.6582031,19.9641927 19.7167969,19.9316406 C19.7753906,19.8990885 19.8307292,19.8567708 19.8828125,19.8046875 C20,19.6875 20.0585938,19.5410156 20.0585938,19.3652344 C20.0585938,19.1894531 20,19.0429688 19.8828125,18.9257812 Z M8.125,15 C6.875,15 5.72265625,14.6907552 4.66796875,14.0722656 C3.61328125,13.453776 2.77994792,12.6171875 2.16796875,11.5625 C1.55598958,10.5078125 1.25,9.36197917 1.25,8.125 C1.25,6.88802083 1.55598958,5.7421875 2.16796875,4.6875 C2.77994792,3.6328125 3.61328125,2.79622396 4.66796875,2.17773438 C5.72265625,1.55924479 6.87174479,1.25 8.11523438,1.25 C9.35872396,1.25 10.5078125,1.55924479 11.5625,2.17773438 C12.6171875,2.79622396 13.453776,3.6328125 14.0722656,4.6875 C14.6907552,5.7421875 15,6.88802083 15,8.125 C15,9.9609375 14.3619792,11.5429688 13.0859375,12.8710938 C11.8229167,14.1861979 10.2864583,14.8958333 8.4765625,15 C8.359375,15 8.2421875,15 8.125,15 Z M11.25,7.5 L8.75,7.5 L8.75,5 C8.75,4.83072917 8.68815104,4.68424479 8.56445312,4.56054688 C8.44075521,4.43684896 8.29101562,4.375 8.11523438,4.375 C7.93945312,4.375 7.79296875,4.43684896 7.67578125,4.56054688 C7.55859375,4.68424479 7.5,4.83072917 7.5,5 L7.5,7.5 L5,7.5 C4.81770833,7.5 4.66796875,7.56184896 4.55078125,7.68554688 C4.43359375,7.80924479 4.375,7.95572917 4.375,8.125 C4.375,8.29427083 4.43359375,8.44075521 4.55078125,8.56445312 C4.66796875,8.68815104 4.81770833,8.75 5,8.75 L7.5,8.75 L7.5,11.25 C7.5,11.4192708 7.55859375,11.5657552 7.67578125,11.6894531 C7.79296875,11.813151 7.93945312,11.875 8.11523438,11.875 C8.29101562,11.875 8.44075521,11.813151 8.56445312,11.6894531 C8.68815104,11.5657552 8.75,11.4192708 8.75,11.25 L8.75,8.75 L11.25,8.75 C11.4192708,8.75 11.5657552,8.68815104 11.6894531,8.56445312 C11.813151,8.44075521 11.875,8.29427083 11.875,8.125 C11.875,7.95572917 11.813151,7.80924479 11.6894531,7.68554688 C11.5657552,7.56184896 11.4192708,7.5 11.25,7.5 Z" id="Shape"></path>
                </g>
            </g>
        </g>
    </g>
</svg>
