<svg width="416" height="416" viewBox="0 0 416 416" fill="none" xmlns="http://www.w3.org/2000/svg">
<path d="M380.57 415.02H35.43C16.4 415.02 0.97998 399.6 0.97998 380.57V35.43C0.97998 16.4 16.4 0.980011 35.43 0.980011H380.58C399.61 0.980011 415.03 16.4 415.03 35.43V380.58C415.02 399.6 399.6 415.02 380.57 415.02Z" fill="url(#paint0_linear_1_2)"/>
<path d="M312.96 186.62L230.34 104C225.56 99.22 219.28 96.85 213.02 96.89C206.75 96.86 200.48 99.22 195.7 104L110.08 189.62L78.72 220.98L135.6 277.86L170.39 312.64L213.02 270L255.67 312.65L256.57 311.75L347.33 220.99L312.96 186.62ZM197.4 216.05L169.95 243.5L147.44 220.99L213.01 155.42L278.58 220.99L255.65 243.92L227.79 216.06C219.41 207.66 205.8 207.66 197.4 216.05Z" fill="white"/>
<defs>
<linearGradient id="paint0_linear_1_2" x1="-37.1743" y1="445.409" x2="464.562" y2="-40.4355" gradientUnits="userSpaceOnUse">
<stop offset="0.1981" stop-color="#0076B7"/>
<stop offset="1" stop-color="#0060B7"/>
</linearGradient>
</defs>
</svg>
