<svg width="302" height="302" viewBox="0 0 302 302" fill="none" xmlns="http://www.w3.org/2000/svg">
<path d="M276.78 301.89H25.22C11.35 301.89 0.109985 290.65 0.109985 276.78V25.22C0.109985 11.35 11.35 0.109985 25.22 0.109985H276.78C290.65 0.109985 301.89 11.35 301.89 25.22V276.78C301.89 290.65 290.65 301.89 276.78 301.89Z" fill="#122236"/>
<path opacity="0.25" d="M200.79 171.88L157.22 128.31C154.7 125.79 151.39 124.54 148.09 124.56C144.79 124.54 141.48 125.79 138.96 128.31L93.8 173.47L77.24 190L107.24 220L125.59 238.35L148.08 215.86L170.57 238.35L171.05 237.87L218.92 190L200.79 171.88Z" fill="white"/>
<path opacity="0.5" d="M200.79 110.98L157.22 67.41C154.7 64.89 151.39 63.64 148.09 63.66C144.79 63.64 141.48 64.89 138.96 67.41L93.8 112.57L77.26 129.11L107.26 159.11L125.61 177.46L148.1 154.97L170.59 177.46L171.07 176.98L218.94 129.11L200.79 110.98Z" fill="white"/>
<path d="M200.79 141.01L157.22 97.44C154.7 94.92 151.39 93.67 148.09 93.69C144.79 93.67 141.48 94.92 138.96 97.44L93.8 142.6L77.26 159.14L107.26 189.14L125.61 207.49L148.1 185L170.59 207.49L171.07 207.01L218.94 159.14L200.79 141.01ZM139.84 156.53L125.36 171L113.49 159.13L148.07 124.55L182.65 159.13L170.56 171.22L155.87 156.53C151.45 152.1 144.27 152.1 139.84 156.53Z" fill="white"/>
<path d="M125.37 171.01L139.85 156.54C144.28 152.11 151.46 152.11 155.88 156.54L170.57 171.23L182.66 159.14L148.08 124.56L113.5 159.14L125.37 171.01Z" fill="#122236"/>
</svg>
